<?xml version="1.0" encoding="UTF-8" standalone="no"?>
<!-- Generator: Adobe Illustrator 23.0.1, SVG Export Plug-In . SVG Version: 6.00 Build 0)  -->

<svg
   version="1.1"
   id="Layer_1"
   x="0px"
   y="0px"
   viewBox="0 0 176 176"
   enable-background="new 0 0 176 176"
   xml:space="preserve"
   sodipodi:docname="youtubemusic.svg"
   inkscape:version="1.2.1 (9c6d41e410, 2022-07-14)"
   xmlns:inkscape="http://www.inkscape.org/namespaces/inkscape"
   xmlns:sodipodi="http://sodipodi.sourceforge.net/DTD/sodipodi-0.dtd"
   xmlns="http://www.w3.org/2000/svg"
   xmlns:svg="http://www.w3.org/2000/svg"
   xmlns:ns="&amp;ns_sfw;"><defs
   id="defs4822">
	
	
	
</defs><sodipodi:namedview
   id="namedview4820"
   pagecolor="#ffffff"
   bordercolor="#000000"
   borderopacity="0.25"
   inkscape:showpageshadow="2"
   inkscape:pageopacity="0.0"
   inkscape:pagecheckerboard="0"
   inkscape:deskcolor="#d1d1d1"
   showgrid="false"
   inkscape:zoom="3.3949161"
   inkscape:cx="11.045928"
   inkscape:cy="100.44431"
   inkscape:window-width="1920"
   inkscape:window-height="1011"
   inkscape:window-x="0"
   inkscape:window-y="32"
   inkscape:window-maximized="1"
   inkscape:current-layer="Layer_1" />
<metadata
   id="metadata4813">
	<ns:sfw>
		<ns:slices />
		<ns:sliceSourceBounds
   bottomLeftOrigin="true"
   height="176"
   width="176"
   x="8"
   y="-184" />
	</ns:sfw>
</metadata>
<path
   id="XMLID_791_"
   style="fill:#000000"
   d="M 88 0 A 88 88 0 0 0 0 88 A 88 88 0 0 0 88 176 A 88 88 0 0 0 176 88 A 88 88 0 0 0 88 0 z M 88 42 C 113.39994 42 134 62.60005 134 88 C 134 113.39994 113.39994 134 88 134 C 62.60005 134 42 113.39994 42 88 C 42 62.60005 62.60005 42 88 42 z M 88 46 C 64.900046 46 46 64.800046 46 88 C 46 111.19996 64.800046 130 88 130 C 111.19996 130 130 111.19996 130 88 C 130 64.800046 111.09996 46 88 46 z M 72 65 L 111 87 L 72 111 L 72 65 z " />
</svg>
