<?xml version="1.0" encoding="UTF-8" standalone="no"?>
<!-- Generator: Adobe Illustrator 19.2.1, SVG Export Plug-In . SVG Version: 6.00 Build 0)  -->

<svg
   version="1.1"
   id="layer"
   x="0px"
   y="0px"
   viewBox="0 0 650 130.39999"
   xml:space="preserve"
   sodipodi:docname="element.svg"
   width="650"
   height="130.39999"
   inkscape:version="1.3.2 (091e20ef0f, 2023-11-25)"
   xmlns:inkscape="http://www.inkscape.org/namespaces/inkscape"
   xmlns:sodipodi="http://sodipodi.sourceforge.net/DTD/sodipodi-0.dtd"
   xmlns="http://www.w3.org/2000/svg"
   xmlns:svg="http://www.w3.org/2000/svg"><defs
   id="defs2" /><sodipodi:namedview
   id="namedview2"
   pagecolor="#505050"
   bordercolor="#eeeeee"
   borderopacity="1"
   inkscape:showpageshadow="0"
   inkscape:pageopacity="0"
   inkscape:pagecheckerboard="0"
   inkscape:deskcolor="#d1d1d1"
   inkscape:zoom="0.83282209"
   inkscape:cx="303.78637"
   inkscape:cy="70.243094"
   inkscape:window-width="1920"
   inkscape:window-height="1011"
   inkscape:window-x="1920"
   inkscape:window-y="32"
   inkscape:window-maximized="1"
   inkscape:current-layer="layer" />
<style
   type="text/css"
   id="style1">
	.st0{fill:#0DBD8B;}
</style>
<path
   class="st0"
   d="m 91.2,130.4 c 36,0 65.2,-29.2 65.2,-65.2 C 156.4,29.2 127.2,0 91.2,0 55.2,0 26,29.2 26,65.2 c 0,36 29.2,65.2 65.2,65.2 z M 79.3,30.4 c 0,-2.6 2.1,-4.8 4.8,-4.8 17.9,0 32.4,14.5 32.4,32.3 0,2.6 -2.1,4.8 -4.8,4.8 -2.6,0 -4.8,-2.1 -4.8,-4.8 0,-12.6 -10.2,-22.8 -22.8,-22.8 -2.7,0 -4.8,-2.1 -4.8,-4.7 z M 126,53.1 c 2.6,0 4.8,2.1 4.8,4.8 0,17.8 -14.5,32.3 -32.4,32.3 -2.6,0 -4.8,-2.1 -4.8,-4.8 0,-2.6 2.1,-4.8 4.8,-4.8 12.6,0 22.8,-10.2 22.8,-22.8 0,-2.5 2.2,-4.7 4.8,-4.7 z M 103.2,100 c 0,2.6 -2.1,4.8 -4.8,4.8 C 80.5,104.8 66,90.3 66,72.5 c 0,-2.6 2.1,-4.8 4.8,-4.8 2.6,0 4.8,2.1 4.8,4.8 0,12.6 10.2,22.8 22.8,22.8 2.7,0 4.8,2.1 4.8,4.7 z M 56.4,77.3 c -2.6,0 -4.8,-2.1 -4.8,-4.8 0,-17.8 14.5,-32.3 32.4,-32.3 2.6,0 4.8,2.1 4.8,4.8 0,2.6 -2.1,4.8 -4.8,4.8 -12.6,0 -22.8,10.2 -22.8,22.8 -0.1,2.5 -2.2,4.7 -4.8,4.7 z"
   id="path1" />
<path
   d="m 255.4,73.9 h -46 c 0.5,4.8 2.3,8.7 5.2,11.5 3,2.8 6.8,4.2 11.6,4.2 3.2,0 6.1,-0.8 8.6,-2.3 2.6,-1.6 4.4,-3.6 5.5,-6.3 h 14 c -1.9,6.1 -5.4,11.1 -10.5,14.9 -5,3.7 -11,5.6 -17.9,5.6 -9,0 -16.3,-3 -21.9,-9 -5.5,-6 -8.3,-13.6 -8.3,-22.7 0,-8.9 2.8,-16.4 8.4,-22.5 5.6,-6.1 12.8,-9.1 21.7,-9.1 8.9,0 16,3 21.4,9 5.5,5.9 8.3,13.4 8.3,22.4 z M 225.8,49.6 c -4.3,0 -8,1.3 -10.8,3.8 -2.9,2.6 -4.7,6 -5.4,10.3 h 32.1 c -0.6,-4.3 -2.3,-7.7 -5.1,-10.3 -2.7,-2.5 -6.3,-3.8 -10.8,-3.8 z m 39.3,32.5 V 12.8 H 279 v 69.5 c 0,3.1 1.7,4.7 5.1,4.7 l 2.4,-0.1 v 13.2 c -1.3,0.2 -2.7,0.3 -4.2,0.3 -6,0 -10.4,-1.5 -13.2,-4.5 -2.7,-3.1 -4,-7.7 -4,-13.8 z m 86,-8.2 h -46 c 0.5,4.8 2.3,8.7 5.2,11.5 3,2.8 6.8,4.2 11.6,4.2 3.2,0 6.1,-0.8 8.6,-2.3 2.6,-1.6 4.4,-3.6 5.5,-6.3 h 14 c -1.9,6.1 -5.4,11.1 -10.5,14.9 -5,3.7 -11,5.6 -17.9,5.6 -9,0 -16.3,-3 -21.9,-9 -5.5,-6 -8.3,-13.6 -8.3,-22.7 0,-8.9 2.8,-16.4 8.4,-22.5 5.6,-6.1 12.8,-9.1 21.7,-9.1 8.9,0 16,3 21.4,9 5.5,5.9 8.3,13.4 8.3,22.4 z M 321.5,49.6 c -4.3,0 -8,1.3 -10.8,3.8 -2.9,2.6 -4.7,6 -5.4,10.3 h 32.1 c -0.6,-4.3 -2.3,-7.7 -5.1,-10.3 -2.8,-2.6 -6.4,-3.8 -10.8,-3.8 z m 92.1,15.8 v 34.7 H 399.7 V 63.9 c 0,-9.2 -3.8,-13.7 -11.4,-13.7 -4.1,0 -7.4,1.3 -9.9,4 -2.4,2.6 -3.6,6.3 -3.6,10.8 v 35.2 H 360.9 V 39.7 h 12.8 v 8 c 1.5,-2.7 3.7,-5 6.8,-6.8 3,-1.8 6.8,-2.7 11.3,-2.7 8.4,0 14.4,3.2 18.2,9.6 5.1,-6.4 12,-9.6 20.5,-9.6 7.1,0 12.5,2.2 16.3,6.6 3.8,4.3 5.7,10.1 5.7,17.2 v 38 H 438.6 V 63.8 c 0,-9.2 -3.8,-13.7 -11.4,-13.7 -4.2,0 -7.5,1.4 -10,4.1 -2.4,2.7 -3.6,6.4 -3.6,11.2 z m 107.8,8.5 h -46 c 0.5,4.8 2.3,8.7 5.2,11.5 3,2.8 6.8,4.2 11.6,4.2 3.2,0 6.1,-0.8 8.6,-2.3 2.6,-1.6 4.4,-3.6 5.5,-6.3 h 14 c -1.9,6.1 -5.4,11.1 -10.5,14.9 -5,3.7 -11,5.6 -17.9,5.6 -9,0 -16.3,-3 -21.9,-9 -5.5,-6 -8.3,-13.6 -8.3,-22.7 0,-8.9 2.8,-16.4 8.4,-22.5 5.6,-6.1 12.8,-9.1 21.7,-9.1 8.9,0 16,3 21.4,9 5.5,5.9 8.3,13.4 8.3,22.4 z M 491.8,49.6 c -4.3,0 -8,1.3 -10.8,3.8 -2.9,2.6 -4.7,6 -5.4,10.3 h 32.1 c -0.6,-4.3 -2.3,-7.7 -5.1,-10.3 -2.8,-2.6 -6.3,-3.8 -10.8,-3.8 z m 52.3,-9.9 v 8 c 1.4,-2.6 3.7,-4.9 6.9,-6.6 3.3,-1.9 7.2,-2.8 11.8,-2.8 7.1,0 12.7,2.2 16.5,6.5 4,4.3 5.9,10.1 5.9,17.4 v 38 H 571.4 V 64 c 0,-4.3 -1,-7.6 -3,-10 -1.9,-2.5 -4.9,-3.7 -9,-3.7 -4.4,0 -7.9,1.3 -10.5,4 -2.5,2.6 -3.7,6.3 -3.7,10.9 v 35.1 H 531.3 V 39.8 h 12.8 z m 81.6,48.1 v 12 c -1.7,0.5 -4.1,0.7 -7.2,0.7 -11.8,0 -17.7,-5.9 -17.7,-17.8 V 50.8 h -9.2 V 39.7 h 9.2 V 24 h 13.9 V 39.7 H 626 v 11.1 h -11.3 v 30.5 c 0,4.7 2.3,7.1 6.8,7.1 z"
   id="path2" />
</svg>
